<?xml version="1.0" encoding="UTF-8" standalone="no"?>
<!-- Created with Inkscape (http://www.inkscape.org/) -->

<svg
   width="24"
   height="24"
   viewBox="0 0 6.3499999 6.3500001"
   version="1.1"
   id="svg1"
   xml:space="preserve"
   inkscape:version="1.3.2 (091e20e, 2023-11-25, custom)"
   sodipodi:docname="solicitudes_icon_24px.svg"
   xmlns:inkscape="http://www.inkscape.org/namespaces/inkscape"
   xmlns:sodipodi="http://sodipodi.sourceforge.net/DTD/sodipodi-0.dtd"
   xmlns="http://www.w3.org/2000/svg"
   xmlns:svg="http://www.w3.org/2000/svg"><sodipodi:namedview
     id="namedview1"
     pagecolor="#505050"
     bordercolor="#ffffff"
     borderopacity="1"
     inkscape:showpageshadow="0"
     inkscape:pageopacity="0"
     inkscape:pagecheckerboard="1"
     inkscape:deskcolor="#505050"
     inkscape:document-units="px"
     inkscape:zoom="14.481547"
     inkscape:cx="17.297876"
     inkscape:cy="1.484648"
     inkscape:window-width="1920"
     inkscape:window-height="1009"
     inkscape:window-x="1912"
     inkscape:window-y="-8"
     inkscape:window-maximized="1"
     inkscape:current-layer="layer1"><inkscape:page
       x="0"
       y="0"
       width="6.3499999"
       height="6.3499999"
       id="page2"
       margin="0"
       bleed="0" /></sodipodi:namedview><defs
     id="defs1" /><g
     inkscape:groupmode="layer"
     id="layer1"
     inkscape:label="Layer 1"><path
       style="fill:#ffffff;fill-opacity:1"
       d="m 0.12268623,6.3220046 c -0.0378179,-0.018905 -0.0590268,-0.040913 -0.0785925,-0.081553 -0.0258891,-0.053774 -0.0265679,-0.065822 -0.0200326,-0.3555829 0.0082988,-0.3679525 0.0254121,-0.4536436 0.1336561,-0.6692529 0.074463,-0.1483214 0.2303828,-0.3279223 0.3629315,-0.4180536 0.03348,-0.022766 0.063088,-0.043181 0.065797,-0.045368 0.00271,-0.00219 -0.036752,-0.047839 -0.087692,-0.1014497 C 0.35121823,4.4954718 0.27160933,4.3371408 0.23506203,4.1262985 0.19975673,3.9226217 0.22886703,3.728279 0.32309873,3.5385592 0.42633553,3.3307091 0.56052033,3.1958779 0.76653853,3.0929831 1.0103928,2.9711913 1.2478008,2.9555005 1.5146124,3.0435413 c 0.2360419,0.077888 0.4385462,0.2592161 0.5528267,0.4950179 0.074547,0.153818 0.100974,0.2697322 0.1003778,0.4402832 -9.374e-4,0.2681392 -0.1107064,0.5250032 -0.2994373,0.7006955 l -0.072147,0.067163 0.073244,0.050013 c 0.1767868,0.1207138 0.3467393,0.3401275 0.4240815,0.5475017 0.063462,0.1701578 0.074666,0.2557747 0.075599,0.5777165 8.236e-4,0.2841431 -4.575e-4,0.3015687 -0.024562,0.3340969 -0.013987,0.018875 -0.040757,0.045825 -0.059489,0.059889 -0.033685,0.025291 -0.045421,0.025606 -1.072341,0.028775 -1.03126397,0.00318 -1.03863337,0.00303 -1.09007887,-0.022688 z M 2.0026251,5.7988864 C 1.9907644,5.5118569 1.9302709,5.3628654 1.7545103,5.1877962 1.5939155,5.0278331 1.4184994,4.9566899 1.1870789,4.957664 0.83955963,4.9591268 0.54690383,5.1735345 0.43244193,5.5105319 0.40344313,5.5959096 0.39794273,5.6352701 0.39301243,5.7926852 l -0.00573,0.1829345 H 1.1986055 2.0099281 Z M 1.3647627,4.5533776 C 1.6176036,4.4841296 1.7999645,4.241175 1.800266,3.9731681 1.800458,3.8025519 1.74,3.6578675 1.61866,3.5385592 1.3759778,3.2999406 1.0076326,3.3009925 0.76895183,3.5409858 0.53026123,3.7809888 0.53002223,4.1509148 0.76839973,4.395374 0.92944703,4.5605301 1.1374397,4.6156368 1.3647627,4.5533776 Z m 1.1254121,-0.028765 c -0.02211,-0.013555 -0.051289,-0.042834 -0.064842,-0.065066 -0.024388,-0.040004 -0.024609,-0.060019 -0.021473,-1.9379795 l 0.00317,-1.89755856 0.027426,-0.080615 c 0.083005,-0.2439821 0.2778557,-0.4348071 0.52146,-0.5106866 l 0.092509,-0.028815 h 1.3259608 1.3259608 l 0.1053882,0.03795 c 0.2465581,0.0887851 0.4219108,0.2754088 0.5010466,0.5332517 0.02135,0.0695616 0.022626,0.1489178 0.022626,1.40697146 v 1.333252 l -0.033789,0.1001912 c -0.079746,0.2364714 -0.26596,0.4234019 -0.5027637,0.5046992 -0.079984,0.027459 -0.08288,0.02754 -1.2211173,0.033778 L 3.4307946,3.9602389 3.060419,4.2404795 C 2.8567124,4.3946118 2.6780726,4.5271619 2.6634416,4.5350352 2.6218418,4.5574211 2.5351885,4.5522086 2.4901748,4.5246126 Z M 3.0493347,3.7840808 C 3.2015099,3.6699274 3.3126283,3.5951887 3.3376541,3.590156 c 0.022395,-0.0045 0.5476906,-0.00819 1.1673228,-0.00819 1.1062317,0 1.1278283,-4.606e-4 1.19431,-0.025471 0.089504,-0.033671 0.1822942,-0.1191038 0.225543,-0.2076592 l 0.034541,-0.070726 0.00373,-1.2588378 C 5.9658009,1.1116351 5.9629144,0.74133574 5.9527719,0.69197784 5.9230329,0.54725994 5.7890098,0.41249934 5.6450833,0.38259734 5.5959953,0.37239934 5.227721,0.36950034 4.3250475,0.37220734 l -1.2519539,0.003755 -0.070339,0.0347311 c -0.088071,0.0434866 -0.1730369,0.1367869 -0.2065247,0.2267833 -0.025085,0.067415 -0.025332,0.0840995 -0.025332,1.71244206 0,1.3137468 0.0031,1.6419044 0.015418,1.6321314 0.00848,-0.00673 0.1268384,-0.095814 0.2630188,-0.1979692 z M 4.2889205,3.0393456 C 4.1794769,2.9832326 4.1514533,2.8361104 4.2337555,2.7497331 c 0.042067,-0.04415 0.1107024,-0.066814 0.169025,-0.055812 0.1671199,0.031524 0.1979128,0.2629086 0.045804,0.3441836 -0.053823,0.028759 -0.1052145,0.029158 -0.159664,0.00124 z M 4.3095125,2.4481733 C 4.2033925,2.4097683 4.1832568,2.3661013 4.1832251,2.1743014 4.1832034,2.042541 4.1863051,2.0204953 4.2102531,1.9820651 4.2469411,1.9231951 4.2738981,1.9089931 4.3868464,1.8890251 4.5041869,1.8682811 4.5721812,1.8281471 4.6209306,1.7508545 4.7953758,1.4742704 4.5043689,1.1551752 4.214934,1.3056708 4.1293492,1.3501718 4.0537712,1.483656 4.0536417,1.5905418 4.053535,1.6786337 3.9654458,1.7587302 3.8686701,1.7587302 c -0.121872,0 -0.1946616,-0.097804 -0.1784644,-0.2397938 0.031964,-0.2802033 0.2163168,-0.5107711 0.4736031,-0.59232836 0.1143562,-0.03625 0.2977219,-0.0356 0.4079289,0.00145 0.2179954,0.073279 0.3825108,0.24564916 0.4488231,0.47025076 0.030117,0.1020068 0.026187,0.2842511 -0.00832,0.3860393 C 4.9485778,1.9721159 4.8239473,2.1132049 4.6488323,2.195746 4.5540363,2.240428 4.5470725,2.2463 4.5470725,2.281548 c 0,0.1199636 -0.1247372,0.207458 -0.2375561,0.1666287 z"
       id="path4" /></g></svg>
