<?xml version="1.0" encoding="UTF-8" standalone="no"?>
<svg
   viewBox="0 -0.5 24 24"
   version="1.1"
   fill="#ffffff"
   stroke="#ffffff"
   id="svg1"
   sodipodi:docname="stats.svg"
   width="24"
   height="24"
   inkscape:version="1.3.2 (091e20e, 2023-11-25, custom)"
   xmlns:inkscape="http://www.inkscape.org/namespaces/inkscape"
   xmlns:sodipodi="http://sodipodi.sourceforge.net/DTD/sodipodi-0.dtd"
   xmlns="http://www.w3.org/2000/svg"
   xmlns:svg="http://www.w3.org/2000/svg">
  <defs
     id="defs2" />
  <sodipodi:namedview
     id="namedview1"
     pagecolor="#505050"
     bordercolor="#ffffff"
     borderopacity="1"
     inkscape:showpageshadow="0"
     inkscape:pageopacity="0"
     inkscape:pagecheckerboard="1"
     inkscape:deskcolor="#505050"
     inkscape:zoom="6.5407377"
     inkscape:cx="-2.3697633"
     inkscape:cy="27.137612"
     inkscape:window-width="1920"
     inkscape:window-height="991"
     inkscape:window-x="-9"
     inkscape:window-y="-9"
     inkscape:window-maximized="1"
     inkscape:current-layer="svg1" />
  <g
     id="SVGRepo_bgCarrier"
     stroke-width="0" />
  <g
     id="SVGRepo_tracerCarrier"
     stroke-linecap="round"
     stroke-linejoin="round" />
  <g
     id="SVGRepo_iconCarrier"
     transform="scale(1.1428571,1.2)">
    <title
       id="title1">stats [#ffffff]</title>
    <desc
       id="desc1">Created with Sketch.</desc>
    <defs
       id="defs1" />
    <g
       id="Page-1"
       stroke="none"
       stroke-width="1"
       fill="none"
       fill-rule="evenodd">
      <g
         id="Dribbble-Light-Preview"
         transform="translate(-99,-840)"
         fill="#ffffff">
        <g
           id="icons"
           transform="translate(56,160)">
          <path
             d="m 61.9,697 c 0,0.552 -0.4704,1 -1.05,1 -0.5796,0 -1.05,-0.448 -1.05,-1 v -14 c 0,-0.552 0.4704,-1 1.05,-1 0.5796,0 1.05,0.448 1.05,1 z m 0,-17 h -2.1 c -1.16025,0 -2.1,0.895 -2.1,2 v 16 c 0,1.105 0.93975,2 2.1,2 h 2.1 c 1.16025,0 2.1,-0.895 2.1,-2 v -16 c 0,-1.105 -0.93975,-2 -2.1,-2 z m -14.7,17 c 0,0.552 -0.4704,1 -1.05,1 -0.5796,0 -1.05,-0.448 -1.05,-1 v -10 c 0,-0.552 0.4704,-1 1.05,-1 0.5796,0 1.05,0.448 1.05,1 z m 0,-13 h -2.1 c -1.16025,0 -2.1,0.895 -2.1,2 v 12 c 0,1.105 0.93975,2 2.1,2 h 2.1 c 1.16025,0 2.1,-0.895 2.1,-2 v -12 c 0,-1.105 -0.93975,-2 -2.1,-2 z m 7.35,13 c 0,0.552 -0.4704,1 -1.05,1 -0.5796,0 -1.05,-0.448 -1.05,-1 v -4 c 0,-0.552 0.4704,-1 1.05,-1 0.5796,0 1.05,0.448 1.05,1 z m 0,-7 h -2.1 c -1.16025,0 -2.1,0.895 -2.1,2 v 6 c 0,1.105 0.93975,2 2.1,2 h 2.1 c 1.16025,0 2.1,-0.895 2.1,-2 v -6 c 0,-1.105 -0.93975,-2 -2.1,-2 z"
             id="stats-[#ffffff]" />
        </g>
      </g>
    </g>
  </g>
</svg>
