<?xml version="1.0" encoding="UTF-8" standalone="no"?>
<!-- Created with Inkscape (http://www.inkscape.org/) -->

<svg
   width="2220"
   height="772.87836"
   viewBox="0 0 2220 772.87836"
   version="1.1"
   id="svg1"
   xml:space="preserve"
   xmlns="http://www.w3.org/2000/svg"
   xmlns:svg="http://www.w3.org/2000/svg"><defs
     id="defs1" /><g
     id="layer1"
     transform="translate(-86.011543,-199.37163)"><g
       id="g5"
       transform="matrix(1.3604953,0,0,1.4238155,-406.39631,230.98537)"
       style="fill:#000000"><g
         id="g6"><path
           style="fill:#000000"
           d="m 86.666667,971.58336 c -0.832818,-0.83281 -0.892174,-554.58209 -0.05968,-556.75154 0.550787,-1.43533 19.757923,-1.58179 207.440983,-1.58179 141.12332,0 207.03668,-0.32795 207.47198,-1.03229 0.87084,-1.40903 0.92513,-112.43854 0.0557,-113.84535 -0.49285,-0.79745 -11.52227,-1.12236 -38.09945,-1.12236 -42.80336,0 -39.35598,0.86874 -38.69032,-9.75 l 0.39179,-6.25 37.16118,-0.0153 c 21.66076,-0.009 37.7866,-0.41067 38.66059,-0.96316 1.29152,-0.81643 1.49949,-6.46413 1.5,-40.73469 l 5.9e-4,-39.78684 6.46915,-0.30341 c 3.55803,-0.16687 7.49553,-0.0458 8.75,0.26906 L 520,200.28813 v 39.42194 c 0,30.4394 0.28482,39.60627 1.25,40.23094 0.6875,0.44496 16.55,1.03402 35.25,1.30902 l 34,0.5 v 7.5 7.5 l -34,0.25535 c -30.5432,0.22939 -34.12709,0.42674 -35.25,1.94113 -0.96417,1.3003 -1.25,14.17508 -1.25,56.30352 0,42.12607 0.28589,55.00432 1.25,56.30797 1.14713,1.55114 6.43446,1.71088 64.25,1.94113 l 63,0.2509 0.5,278 c 0.28336,157.5462 0.12198,278.54161 -0.37244,279.25 -0.69444,0.99495 -58.0466,1.25 -281.08334,1.25 -154.11599,0 -280.510887,-0.3 -280.877553,-0.66667 z M 590.00778,955.74065 c 0.89484,-1.07821 0.89668,-2.25006 0.008,-4.94344 -0.64079,-1.94162 -1.5573,-6.30506 -2.03668,-9.69653 -0.47938,-3.39147 -1.45824,-6.53839 -2.17525,-6.99317 -0.717,-0.45477 -6.54129,-0.83374 -12.94286,-0.84217 -15.19282,-0.02 -15.54791,0.24424 -16.77812,12.48469 -1.25674,12.5044 -1.89669,12.07055 17.26093,11.70192 11.84604,-0.22794 15.76731,-0.63063 16.66419,-1.7113 z M 351.8,956.05003 c 1.88971,-1.88971 1.7266,-250.11807 -0.16538,-251.68828 -0.98187,-0.81488 -13.55153,-1.05993 -44.75,-0.87244 l -43.38462,0.26072 -1.58929,4.78929 c -2.31759,6.98401 -3.08114,7.37798 -7.23344,3.73221 l -3.56826,-3.13297 -1.58596,3.06689 c -1.22691,2.37259 -2.08821,2.95438 -3.8045,2.56988 -1.48665,-0.33305 -3.25027,0.40554 -5.34591,2.23884 -3.76788,3.2962 -14.09766,18.29206 -14.95594,21.71172 -0.33711,1.34316 -1.24378,2.96566 -2.01481,3.60557 -0.77104,0.6399 -1.40384,1.67086 -1.40622,2.29102 -0.009,2.33521 -8.1766,17.23313 -10.81529,19.7273 -4.3926,4.15203 -6.59358,4.90025 -14.41464,4.90025 -4.05116,0 -7.80905,0.44331 -8.35088,0.98514 -0.54182,0.54182 -3.41304,1.44558 -6.38047,2.00834 -2.96744,0.56276 -6.13706,1.69445 -7.04361,2.51486 -0.90654,0.82041 -2.33147,1.49166 -3.16651,1.49166 -0.83504,0 -2.55596,0.9 -3.82427,2 -1.26831,1.1 -3.1148,2 -4.10332,2 -0.98851,0 -2.1854,0.6935 -2.65975,1.54112 -1.01186,1.80808 -9.67282,4.51878 -16.59219,5.19301 -2.67039,0.2602 -8.93496,-0.31932 -13.92126,-1.28784 -7.64053,-1.48406 -9.66799,-2.3048 -12.89474,-5.21997 C 114.8454,777.78108 114,776.27999 114,773.67808 c 0,-3.12711 3.24209,-9.20747 6.30144,-11.81801 0.71548,-0.61052 3.02442,-3.28285 5.13097,-5.93851 l 3.83009,-4.82847 -0.64389,-9.17153 c -0.71704,-10.21358 0.77296,-30.4631 2.35818,-32.04832 0.56276,-0.56276 1.02321,-2.04964 1.02321,-3.30416 0,-3.09603 -2.00164,-3.45147 -17.5,-3.10754 l -13,0.28849 -0.25723,125.5 c -0.14148,69.025 -0.0431,126.0625 0.21861,126.75 0.68122,1.78949 248.54963,1.83899 250.33862,0.05 z m 165.11522,-1.05 c 1.57775,-4.06945 3.98329,-13.06878 6.61573,-24.75 1.42538,-6.325 3.20171,-13.525 3.94741,-16 0.74569,-2.475 1.63099,-6.45974 1.96732,-8.85497 0.33634,-2.39524 1.27366,-5.63539 2.08292,-7.20034 1.69328,-3.27445 1.76028,-3.94047 0.58326,-5.79793 -0.97559,-1.53958 -3.98657,-0.37284 -7.66967,2.97196 -1.13179,1.02784 -5.28584,2.99661 -9.23122,4.37504 -6.12303,2.13926 -8.93719,2.50624 -19.21891,2.50624 -10.49132,0 -13.10069,-0.35482 -20.22358,-2.75 -6.67069,-2.24312 -9.14575,-3.69358 -13.42805,-7.86922 -3.14482,-3.06649 -6.24567,-7.37066 -7.73309,-10.73398 C 451.68278,874.28387 448,853.8562 448,844.24715 c 0,-8.86637 -1.15182,-9.91453 -7.69054,-6.9984 -11.28347,5.03219 -36.56329,4.77157 -48.0992,-0.49587 -12.83297,-5.85969 -18.88141,-16.1061 -21.25245,-36.00285 -0.45879,-3.85 -0.86198,-27.11094 -0.89599,-51.69098 -0.0419,-30.25351 -0.40323,-44.90199 -1.11866,-45.34415 -0.58125,-0.35923 -2.15625,-0.37722 -3.5,-0.04 L 363,704.28813 v 125.28095 c 0,96.10741 0.27944,125.56039 1.2,126.48095 0.91209,0.91209 19.27143,1.2 76.52144,1.2 h 75.32144 z M 633.77416,832.23636 c 0.15079,-68.46748 0.0297,-125.49883 -0.26905,-126.73633 l -0.54321,-2.25 h -83.94577 c -81.97126,0 -83.97011,0.0455 -84.98095,1.93426 C 463.38964,706.3905 463,718.07063 463,736.21567 c 0,24.39197 0.23267,29.18641 1.43884,29.64927 0.79137,0.30367 4.05387,-0.6061 7.25,-2.02172 17.47408,-7.73956 43.208,-5.7508 56.09739,4.3353 7.41848,5.80505 13.21377,20.57556 13.21377,33.67806 0,9.96611 1.0393,9.39345 -17.04797,9.39345 -11.13629,0 -16.05155,-0.35201 -16.56727,-1.18647 -0.4033,-0.65255 -0.88142,-5.45892 -1.06248,-10.68081 -0.36224,-10.44705 -1.43811,-13.10702 -6.32307,-15.63313 -3.92178,-2.02803 -7.26893,-1.09536 -10.89656,3.03628 -2.45225,2.79296 -3.0494,4.57468 -3.73506,11.1443 -1.07264,10.27755 -1.08129,55.65344 -0.0125,65.68989 0.73634,6.91472 1.2365,8.30483 4.12033,11.45163 4.23843,4.62493 9.40661,4.86358 13.34496,0.61624 2.86968,-3.09482 5.08236,-12.34363 5.14288,-21.4968 0.0616,-9.31263 0.11343,-9.33701 19.24297,-9.04398 l 16.47333,0.25235 2.25786,-8.32475 c 1.24182,-4.57861 2.77642,-10.12475 3.41023,-12.32475 l 1.15237,-4 21.76254,-0.26954 21.76253,-0.26953 0.94155,2.26953 c 0.51784,1.24825 1.87455,6.31954 3.01489,11.26954 1.14035,4.95 2.7134,11.25 3.49567,14 0.78227,2.75 2.09756,7.925 2.92287,11.5 4.71409,20.42004 6.80944,29.03177 8.151,33.5 0.82566,2.75 1.9301,7.37461 2.4543,10.27691 0.5242,2.9023 1.41244,6.13522 1.97387,7.18426 0.56143,1.04904 1.02078,2.93447 1.02078,4.18985 0,2.27226 3.79076,18.82503 6.49221,28.34898 0.78003,2.75 1.68148,6.67527 2.00323,8.72281 0.59261,3.77136 2.77062,5.94619 5.50456,5.49655 1.32227,-0.21747 1.53248,-14.99705 1.77416,-124.73303 z m -52.34559,73.44224 c 1.89822,-1.89821 1.88773,-1.37076 0.16471,-8.28422 -0.7737,-3.10439 -1.71457,-8.34435 -2.09083,-11.64435 -0.37625,-3.3 -1.31823,-8.45704 -2.09328,-11.4601 -0.77504,-3.00305 -1.45403,-7.72805 -1.50885,-10.5 -0.13017,-6.58163 -1.14322,-10.0399 -2.94104,-10.0399 -2.05234,0 -3.71179,5.83193 -4.89418,17.19998 -0.56061,5.39001 -1.47139,11.15002 -2.02396,12.80002 -0.55257,1.65 -1.5971,6.93185 -2.32118,11.73744 -1.6816,11.16047 -1.22486,11.76256 8.9229,11.76256 5.22511,0 7.64757,-0.43329 8.78571,-1.57143 z m -157.8203,-90.51843 c 0.66413,-0.55117 1.92395,-2.51194 2.79962,-4.35726 1.39216,-2.93377 1.59211,-9.82805 1.59211,-54.89499 0,-28.34692 -0.37569,-51.77204 -0.83486,-52.05583 -1.80406,-1.11497 -19.32874,-0.83845 -20.48979,0.32331 -0.86955,0.87009 -1.17535,14.36698 -1.17535,51.87535 0,47.62616 0.11404,50.92882 1.88148,54.48623 2.44429,4.91976 5.97327,6.88919 11.06891,6.17725 2.17271,-0.30355 4.49376,-1.00288 5.15788,-1.55406 z M 159.29117,778.8634 c 3.73514,-1.30785 7.59557,-3.10589 8.57874,-3.99564 0.98316,-0.88975 2.29228,-1.61773 2.90914,-1.61773 0.61686,0 1.48143,-0.59683 1.92126,-1.3263 1.37524,-2.28086 10.41661,-4.84375 20.1107,-5.70062 13.87471,-1.2264 16.36054,-3.35026 25.54685,-21.82693 7.4301,-14.94437 8.77423,-17.49855 9.54933,-18.14615 0.32914,-0.275 1.92631,-2.525 3.54927,-5 1.62295,-2.475 4.36002,-6.3 6.08237,-8.5 3.61452,-4.61691 4.74756,-8.02741 3.10794,-9.35496 -1.29569,-1.04906 -22.36993,-0.7565 -23.44829,0.32552 -0.38416,0.38547 -0.69848,5.04978 -0.69848,10.36515 0,7.20498 -0.46233,10.68219 -1.81679,13.66429 l -1.81679,4 -2.38525,-2.75 c -2.96109,-3.41391 -5.11789,-3.48155 -7.66732,-0.24047 -2.35017,2.98775 -3.32157,2.57089 -5.42481,-2.32791 -1.2167,-2.83392 -1.46118,-5.82388 -1.06177,-12.98562 0.49545,-8.88383 0.42075,-9.33732 -1.65419,-10.0419 -1.8162,-0.61671 -13.89242,-0.79557 -19.81883,-0.29352 -0.90517,0.0767 -3.11978,2.50192 -4.92136,5.38942 -1.80159,2.8875 -3.761,5.70513 -4.35425,6.26141 -1.77706,1.6663 -5.57864,7.33983 -5.57864,8.32565 0,0.50493 -0.65901,1.46498 -1.46446,2.13344 -0.80545,0.66847 -3.0382,3.58635 -4.96168,6.48418 -5.68121,8.55911 -19.91074,23.89889 -26.99279,29.0989 -3.75551,2.75748 -6.58107,5.5827 -6.58107,6.58027 0,0.96146 -0.44835,2.02521 -0.99633,2.36388 -1.667,1.03026 1.74939,6.32214 5.26326,8.15264 4.87373,2.53889 8.32004,3.13549 18.73307,3.24291 7.60912,0.0785 10.85171,-0.37529 16.29117,-2.27991 z M 145.60832,734.82682 C 149.12374,731.29406 152,727.9888 152,727.48181 c 0,-0.50699 0.9,-1.73629 2,-2.73178 1.1,-0.99549 2,-2.23777 2,-2.76063 0,-0.52286 1.0125,-2.21272 2.25,-3.75524 4.38681,-5.46808 5.75,-7.39999 5.75,-8.14889 0,-0.41688 2.42022,-4.31229 5.37826,-8.65646 5.73248,-8.41868 7.85772,-12.02579 9.67953,-16.42878 0.62582,-1.5125 1.46049,-2.75 1.85482,-2.75 0.39433,0 1.48481,-1.4625 2.42328,-3.25 0.93847,-1.7875 2.79866,-5.05 4.13376,-7.25 1.3351,-2.2 2.92376,-4.9 3.53035,-6 0.60659,-1.1 2.09224,-3.65156 3.30145,-5.67013 1.2092,-2.01857 4.80207,-8.18941 7.98414,-13.71298 3.18208,-5.52356 6.18496,-10.28967 6.67306,-10.59134 0.48811,-0.30167 1.17602,-1.86223 1.52869,-3.46792 0.35267,-1.60569 1.25211,-3.42643 1.99877,-4.0461 0.74665,-0.61967 1.67413,-3.01326 2.06106,-5.3191 0.38694,-2.30584 1.32211,-5.08006 2.07817,-6.16494 0.89336,-1.28188 1.37466,-4.83589 1.37466,-10.1507 0,-6.54227 -0.48335,-9.22145 -2.4163,-13.39353 -2.34214,-5.05526 -8.04961,-11.98326 -9.87214,-11.98326 -0.49285,0 -2.04027,-0.9 -3.43869,-2 -3.96431,-3.11832 -5.82156,-2.46407 -10.98641,3.87019 -9.36207,11.48178 -20.52119,30.85013 -29.74665,51.62981 -1.46508,3.3 -3.02913,6.6905 -3.47565,7.53444 -0.44653,0.84394 -2.9268,6.91894 -5.51173,13.5 -2.58492,6.58106 -5.56668,14.07398 -6.62614,16.65094 -1.05946,2.57696 -1.92629,5.20895 -1.92629,5.84887 0,0.63992 -0.63881,2.5815 -1.41958,4.31462 -1.55641,3.45489 -5.7252,18.25514 -7.36598,26.15113 -0.57145,2.75 -1.49967,6.8 -2.06271,9 -0.56304,2.2 -0.86811,7.80136 -0.67792,12.44746 0.27348,6.68109 0.71827,8.71982 2.12712,9.75 2.99209,2.18787 4.37481,1.54462 11.00739,-5.12067 z m 82.30578,-39.44492 13.4141,-0.63187 1.0859,-3 c 1.56463,-4.32257 3.5115,-7.5 4.5954,-7.5 0.51653,0 1.64777,1.37033 2.51387,3.04518 l 1.57472,3.04519 3.89953,-3.08849 3.89953,-3.08848 1.66644,2.5433 c 2.74245,4.18552 4.9936,3.61001 16.89691,-4.31975 9.43269,-6.28388 21.76453,-18.60744 30.3963,-30.37592 3.92876,-5.35643 7.1432,-9.96019 7.1432,-10.23058 0,-0.27039 1.49721,-2.86285 3.32713,-5.76103 3.44575,-5.45729 12.64708,-23.84312 12.7068,-25.39037 0.0187,-0.48348 0.90339,-2.67905 1.96607,-4.87905 1.06268,-2.2 1.95018,-4.9 1.97223,-6 0.022,-1.1 0.69549,-3.25651 1.49654,-4.79224 1.91064,-3.66298 2.78506,-8.88954 1.74831,-10.44983 -0.63629,-0.95759 -1.71621,-0.78786 -4.71511,0.74107 -5.98745,3.05257 -9.80169,3.40741 -15.92475,1.48147 -4.00113,-1.25851 -6.57822,-2.91836 -9.47785,-6.10448 -4.46014,-4.90082 -6.72812,-5.48266 -8.02944,-2.05992 -2.45206,6.44942 -11.03323,16.03023 -13.8686,15.48419 -0.92736,-0.1786 -2.32572,-1.65924 -3.10748,-3.29032 -1.24401,-2.59555 -1.20758,-4.22108 0.29198,-13.02674 0.94235,-5.53362 1.4179,-10.8311 1.05678,-11.77217 -0.48726,-1.26976 -1.85399,-1.71669 -5.2996,-1.73299 -8.18391,-0.0387 -15.48086,-4.6344 -19.03348,-11.98747 -7.02291,-14.53576 4.71236,-31.32085 20.74131,-29.66652 12.5693,1.29727 21.59618,14.15404 18.30546,26.07204 -0.85482,3.09591 -0.75451,4.28748 0.52534,6.24078 2.0712,3.16106 4.43843,2.40096 10.07414,-3.23475 4.82804,-4.82805 8.26827,-5.89657 16.7264,-5.19516 4.38992,0.36405 6.24213,1.14563 9.98692,4.21421 5.40413,4.42827 7.5309,4.17273 7.5309,-0.90488 0,-3.5839 1.93316,-12.25897 4.57187,-20.51629 3.54876,-11.10514 0.99927,-14.23642 -10.38906,-12.7598 -18.59447,2.41096 -26.70602,-1.29946 -33.50827,-15.3275 -7.05937,-14.55832 -12.33997,-14.86701 -21.25286,-1.24241 -2.59592,3.96824 -6.34027,8.7466 -8.32077,10.61857 -3.15407,2.98123 -17.23163,11.71114 -18.885,11.71114 -1.43048,0 -11.19937,7.21079 -21.67618,16 C 223.4864,547.52291 202,568.98252 202,570.74919 c 0,0.73178 2.1375,2.9078 4.75,4.8356 9.6301,7.10621 14.60358,14.15572 15.63772,22.16524 0.76938,5.95894 -1.10515,20.19071 -3.02582,22.97251 -0.74904,1.08488 -1.3619,2.82361 -1.3619,3.86384 0,1.04024 -0.82692,3.52761 -1.83761,5.5275 -1.01068,1.99988 -2.92009,5.88615 -4.24312,8.63615 -2.19689,4.56636 -8.01168,14.91926 -13.64552,24.29508 -1.22444,2.03771 -2.64007,4.62341 -3.14583,5.74602 -0.50576,1.1226 -1.64145,2.6402 -2.52374,3.37244 -0.8823,0.73224 -1.60477,1.83875 -1.60549,2.45891 -7.2e-4,0.62015 -1.80072,3.71979 -4,6.88809 -2.19928,3.1683 -3.99869,6.13606 -3.99869,6.59502 0,0.45895 -0.86965,1.62149 -1.93256,2.58341 -3.36095,3.04162 -1.53318,4.44603 6.27344,4.82036 12.08491,0.57947 26.52886,0.53409 40.57322,-0.12746 z M 632.75,691.0052 c 1.6395,-1.31167 1.85074,-259.76415 0.21482,-262.82091 -1.00415,-1.87626 -2.68014,-1.93426 -55.89301,-1.93426 -49.10068,0 -54.92153,0.166 -55.46482,1.58179 C 521.27314,428.7018 521,476.81966 521,534.76039 c 0,94.43647 -0.16275,105.50953 -1.57143,106.91821 -1.09898,1.09899 -3.48268,1.57143 -7.92857,1.57143 -4.44589,0 -6.82959,-0.47244 -7.92857,-1.57143 C 502.16275,640.26992 502,629.19686 502,534.76039 c 0,-57.94073 -0.27314,-106.05859 -0.60699,-106.92857 -0.54513,-1.42059 -7.43061,-1.58179 -67.56574,-1.58179 -44.24402,0 -67.61492,0.35117 -68.89301,1.03518 -1.89722,1.01536 -1.93426,3.541 -1.93426,131.87756 0,108.52567 0.22991,131.03318 1.34797,131.96109 0.97539,0.8095 37.52891,1.18884 132.25,1.37244 71.99612,0.13955 131.80203,0.0862 132.90203,-0.11866 1.1,-0.20481 2.5625,-0.82241 3.25,-1.37244 z M 294.6095,579.75003 c 5.35278,-9.48353 5.68903,-10.27967 5.04759,-11.95124 -0.33321,-0.86833 -1.79711,-2.03169 -3.2531,-2.58526 -2.83697,-1.07862 -4.67908,-0.18652 -6.45081,3.12399 -1.25527,2.34548 -3.12698,15.82227 -2.36802,17.0503 1.29627,2.09741 3.78646,0.0988 7.02434,-5.63779 z m 34.86062,1.07693 c 1.87323,-0.78268 4.8247,-3.37018 6.55882,-5.75 2.70066,-3.70624 3.09174,-4.98225 2.72625,-8.89526 -0.72699,-7.78344 -8.16645,-14.95826 -15.46535,-14.91522 -6.83234,0.0403 -15.23379,8.47421 -15.27339,15.33242 -0.0237,4.09765 2.66758,9.17275 6.35599,11.98604 5.02124,3.82988 9.65167,4.51751 15.09768,2.24202 z m -40.8965,-25.63975 c 8.09527,-7.58536 6.68206,-19.6671 -2.96153,-25.31862 -2.45753,-1.44021 -5.41853,-2.61856 -6.58,-2.61856 -2.90794,0 -9.02111,3.35532 -12.03209,6.60401 -2.15589,2.32611 -2.5,3.63111 -2.5,9.48102 0,6.16637 0.27298,7.07206 3,9.95321 4.05155,4.28055 6.0134,4.99521 12.7363,4.63957 4.43684,-0.23471 6.32553,-0.85555 8.33732,-2.74063 z"
           id="path5"
           transform="matrix(0.73502643,0,0,0.70233819,298.71203,-162.22985)" /><text
           xml:space="preserve"
           style="font-style:normal;font-variant:normal;font-weight:normal;font-stretch:normal;font-size:96px;font-family:'Times New Roman';-inkscape-font-specification:'Times New Roman, Normal';font-variant-ligatures:normal;font-variant-caps:normal;font-variant-numeric:normal;font-variant-east-asian:normal;white-space:pre;inline-size:518.637;fill:#000000;stroke:#2b4077;stroke-width:0;stroke-dasharray:none;paint-order:markers stroke fill"
           x="839.2218"
           y="249.02724"
           id="text1"
           transform="matrix(2.3700825,0,0,2.3167988,-1153.8415,-239.43062)"><tspan
             x="839.2218"
             y="249.02724"
             id="tspan3"><tspan
               style="font-size:62.5901px;stroke:#7e7e7e"
               id="tspan2">Centro de 
</tspan></tspan></text><text
           xml:space="preserve"
           style="font-style:normal;font-variant:normal;font-weight:normal;font-stretch:normal;font-size:152.67px;font-family:'Times New Roman';-inkscape-font-specification:'Times New Roman, Normal';font-variant-ligatures:normal;font-variant-caps:normal;font-variant-numeric:normal;font-variant-east-asian:normal;fill:#000000;stroke:#2b4077;stroke-width:0;stroke-dasharray:none"
           x="837.57788"
           y="512.70605"
           id="text5"
           transform="scale(0.99123654,1.0088409)"><tspan
             id="tspan5"
             x="837.57788"
             y="512.70605"
             style="fill:#000000;stroke-width:0;stroke-dasharray:none">Servicio Social </tspan></text></g></g></g></svg>
